<svg xmlns="http://www.w3.org/2000/svg" xmlns:xlink="http://www.w3.org/1999/xlink" width="1024" zoomAndPan="magnify" viewBox="0 0 768 767.999994" height="1024" preserveAspectRatio="xMidYMid meet" version="1.0"><defs><g/><clipPath id="id1"><path d="M 39.726562 279.050781 L 212.226562 279.050781 L 212.226562 480.800781 L 39.726562 480.800781 Z M 39.726562 279.050781 " clip-rule="nonzero"/></clipPath></defs><rect x="-76.8" width="921.6" fill="#ffffff" y="-76.799999" height="921.599993" fill-opacity="1"/><rect x="-76.8" width="921.6" fill="#ffffff" y="-76.799999" height="921.599993" fill-opacity="1"/><rect x="-76.8" width="921.6" fill="#ffffff" y="-76.799999" height="921.599993" fill-opacity="1"/><rect x="-76.8" width="921.6" fill="#ffffff" y="-76.799999" height="921.599993" fill-opacity="1"/><g clip-path="url(#id1)"><path fill="#000000" d="M 168.050781 346.40625 L 156.585938 346.40625 L 163.398438 338.535156 C 164.96875 338.90625 166.585938 339.105469 168.277344 339.105469 C 179.667969 339.105469 188.972656 329.867188 189.046875 318.488281 C 189.121094 307.039062 179.84375 297.675781 168.277344 297.628906 C 156.882812 297.628906 147.554688 306.867188 147.503906 318.242188 C 147.480469 321.171875 148.078125 324.078125 149.246094 326.734375 L 132.480469 346.40625 L 125.144531 346.40625 L 104.199219 320.550781 C 106.835938 316.304688 108.277344 311.386719 108.328125 306.34375 C 108.378906 299.09375 105.589844 292.261719 100.492188 287.121094 C 95.394531 281.953125 88.601562 279.097656 81.164062 279.050781 C 66.289062 279.050781 54.101562 291.144531 54 306.023438 C 53.953125 313.273438 56.738281 320.105469 61.835938 325.269531 C 66.9375 330.4375 73.75 333.292969 81.164062 333.34375 C 83.105469 333.34375 85.042969 333.144531 86.910156 332.746094 L 97.929688 346.457031 L 83.875 346.457031 C 64 346.40625 39.773438 352.390625 39.773438 393.398438 L 39.773438 436.738281 C 39.773438 460.980469 59.621094 480.800781 83.902344 480.800781 L 168.050781 480.800781 C 192.304688 480.800781 212.179688 460.980469 212.179688 436.738281 L 212.179688 393.398438 C 212.179688 356.960938 187.925781 346.40625 168.050781 346.40625 Z M 172.480469 455.339844 L 79.472656 455.339844 C 72.632812 455.339844 66.863281 449.578125 66.863281 442.75 L 66.910156 393.398438 L 66.910156 385.871094 C 67.160156 379.242188 72.804688 373.726562 79.472656 373.726562 L 172.480469 373.726562 C 179.320312 373.726562 185.089844 379.488281 185.089844 386.320312 L 185.042969 435.695312 L 185.089844 435.695312 L 185.089844 442.75 C 185.089844 449.578125 179.320312 455.339844 172.480469 455.339844 Z M 172.480469 455.339844 " fill-opacity="1" fill-rule="nonzero"/></g><path fill="#fcc509" d="M 107.207031 429.136719 C 107.160156 421.140625 107.109375 408.027344 107.058594 400.03125 C 107.007812 392.03125 113.003906 388.730469 119.871094 392.679688 C 126.710938 396.652344 138.152344 403.132812 144.992188 407.109375 C 151.832031 411.082031 151.984375 417.613281 145.167969 421.664062 C 138.351562 425.710938 126.835938 432.316406 120.019531 436.339844 C 113.226562 440.390625 107.234375 437.136719 107.207031 429.136719 Z M 107.207031 429.136719 " fill-opacity="1" fill-rule="nonzero"/><g fill="#fcc509" fill-opacity="1"><g transform="translate(228.8686, 439.4404)"><g><path d="M 59.953125 -47.71875 L 87.953125 0 L 62.1875 0 L 44.5625 -31.953125 L 27.078125 0 L 1.578125 0 L 29.578125 -47.59375 L 4.34375 -92.03125 L 29.71875 -92.03125 L 44.828125 -63.109375 L 59.953125 -92.03125 L 85.1875 -92.03125 Z M 59.953125 -47.71875 "/></g></g></g><g fill="#fcc509" fill-opacity="1"><g transform="translate(313.121672, 439.4404)"><g><path d="M 50.09375 -70.078125 C 55.695312 -70.078125 61.082031 -68.585938 66.25 -65.609375 C 71.425781 -62.628906 75.632812 -58.421875 78.875 -52.984375 C 82.125 -47.546875 83.75 -41.28125 83.75 -34.1875 C 83.75 -27.082031 82.125 -20.789062 78.875 -15.3125 C 75.632812 -9.832031 71.425781 -5.625 66.25 -2.6875 C 61.082031 0.238281 55.695312 1.703125 50.09375 1.703125 C 41.757812 1.703125 35.140625 -0.617188 30.234375 -5.265625 L 30.234375 26.296875 L 8.28125 26.296875 L 8.28125 -68.359375 L 28.65625 -68.359375 L 28.65625 -61.65625 C 33.832031 -67.269531 40.976562 -70.078125 50.09375 -70.078125 Z M 45.625 -17.75 C 50.351562 -17.75 54.269531 -19.300781 57.375 -22.40625 C 60.488281 -25.519531 62.046875 -29.445312 62.046875 -34.1875 C 62.046875 -38.914062 60.488281 -42.832031 57.375 -45.9375 C 54.269531 -49.050781 50.351562 -50.609375 45.625 -50.609375 C 40.882812 -50.609375 36.957031 -49.050781 33.84375 -45.9375 C 30.738281 -42.832031 29.1875 -38.914062 29.1875 -34.1875 C 29.1875 -29.445312 30.738281 -25.519531 33.84375 -22.40625 C 36.957031 -19.300781 40.882812 -17.75 45.625 -17.75 Z M 45.625 -17.75 "/></g></g></g><g fill="#fcc509" fill-opacity="1"><g transform="translate(395.666006, 439.4404)"><g><path d="M 40.5 -70.078125 C 46.976562 -70.078125 53 -68.585938 58.5625 -65.609375 C 64.132812 -62.628906 68.609375 -58.441406 71.984375 -53.046875 C 75.359375 -47.660156 77.046875 -41.546875 77.046875 -34.703125 C 77.046875 -32.691406 76.828125 -30.367188 76.390625 -27.734375 L 25.640625 -27.734375 C 26.515625 -23.617188 28.265625 -20.421875 30.890625 -18.140625 C 33.523438 -15.859375 36.8125 -14.71875 40.75 -14.71875 C 43.90625 -14.71875 46.554688 -15.285156 48.703125 -16.421875 C 50.859375 -17.566406 52.679688 -19.28125 54.171875 -21.5625 L 75.0625 -21.5625 C 72.519531 -14.632812 68.269531 -9.023438 62.3125 -4.734375 C 56.351562 -0.441406 49.082031 1.703125 40.5 1.703125 C 33.914062 1.703125 27.816406 0.210938 22.203125 -2.765625 C 16.597656 -5.742188 12.109375 -9.945312 8.734375 -15.375 C 5.367188 -20.8125 3.6875 -27.082031 3.6875 -34.1875 C 3.6875 -41.28125 5.367188 -47.546875 8.734375 -52.984375 C 12.109375 -58.421875 16.597656 -62.628906 22.203125 -65.609375 C 27.816406 -68.585938 33.914062 -70.078125 40.5 -70.078125 Z M 40.5 -53.5 C 36.8125 -53.5 33.675781 -52.46875 31.09375 -50.40625 C 28.507812 -48.351562 26.734375 -45.351562 25.765625 -41.40625 L 55.484375 -41.40625 C 54.773438 -45 53.148438 -47.910156 50.609375 -50.140625 C 48.066406 -52.378906 44.695312 -53.5 40.5 -53.5 Z M 40.5 -53.5 "/></g></g></g><g fill="#fcc509" fill-opacity="1"><g transform="translate(471.243923, 439.4404)"><g><path d="M 55.078125 -69.15625 L 55.078125 -49.6875 L 46.28125 -49.6875 C 41.8125 -49.6875 38.019531 -48.175781 34.90625 -45.15625 C 31.789062 -42.132812 30.234375 -38.257812 30.234375 -33.53125 L 30.234375 0 L 8.28125 0 L 8.28125 -68.359375 L 28.65625 -68.359375 L 28.65625 -60.46875 C 33.914062 -66.257812 40.925781 -69.15625 49.6875 -69.15625 Z M 55.078125 -69.15625 "/></g></g></g><g fill="#fcc509" fill-opacity="1"><g transform="translate(522.505118, 439.4404)"><g><path d="M 51.015625 -49.03125 L 35.359375 -49.03125 L 35.359375 -29.84375 C 35.359375 -26.601562 36.253906 -24.0625 38.046875 -22.21875 C 39.847656 -20.375 42.375 -19.453125 45.625 -19.453125 L 51.015625 -19.453125 L 51.015625 0 L 38.921875 0 C 30.765625 0 24.472656 -2.273438 20.046875 -6.828125 C 15.617188 -11.390625 13.40625 -17.703125 13.40625 -25.765625 L 13.40625 -49.03125 L 2.234375 -49.03125 L 2.234375 -68.359375 L 13.40625 -68.359375 L 13.40625 -86.5 L 35.359375 -86.5 L 35.359375 -68.359375 L 51.015625 -68.359375 Z M 51.015625 -49.03125 "/></g></g></g><g fill="#000000" fill-opacity="1"><g transform="translate(564.130751, 431.021139)"><g><path d="M 16.15625 0 L 2.8125 0 L 13.03125 -53.328125 L 26.359375 -53.328125 Z M 16.15625 0 "/></g></g></g><g fill="#000000" fill-opacity="1"><g transform="translate(587.663458, 431.021139)"><g><path d="M 30.78125 -53.328125 C 34.476562 -53.328125 37.773438 -52.648438 40.671875 -51.296875 C 43.566406 -49.953125 45.835938 -48.046875 47.484375 -45.578125 C 49.140625 -43.117188 49.96875 -40.238281 49.96875 -36.9375 C 49.96875 -33.59375 49.113281 -30.445312 47.40625 -27.5 C 45.707031 -24.550781 43.171875 -22.160156 39.796875 -20.328125 C 36.421875 -18.503906 32.347656 -17.59375 27.578125 -17.59375 L 19.203125 -17.59375 L 15.84375 0 L 2.4375 0 L 12.640625 -53.328125 Z M 27.796875 -28.953125 C 30.597656 -28.953125 32.71875 -29.632812 34.15625 -31 C 35.601562 -32.375 36.328125 -34.078125 36.328125 -36.109375 C 36.328125 -37.929688 35.664062 -39.363281 34.34375 -40.40625 C 33.03125 -41.445312 31.304688 -41.96875 29.171875 -41.96875 L 23.921875 -41.96875 L 21.40625 -28.953125 Z M 27.796875 -28.953125 "/></g></g></g><g fill="#000000" fill-opacity="1"><g transform="translate(634.120218, 431.021139)"><g><path d="M 24.21875 0 L 10.890625 0 L 18.8125 -41.28125 L 5.796875 -41.28125 L 8.078125 -53.328125 L 47.453125 -53.328125 L 45.171875 -41.28125 L 32.140625 -41.28125 Z M 24.21875 0 "/></g></g></g><g fill="#000000" fill-opacity="1"><g transform="translate(673.646444, 431.021139)"><g><path d="M 20.5625 -14.546875 L 34.5 -39.609375 L 48.140625 -39.609375 L 23.921875 0 L 12.5625 0 L 3.578125 -39.609375 L 16.15625 -39.609375 Z M 20.5625 -14.546875 "/></g></g></g><g fill="#000000" fill-opacity="1"><g transform="translate(249.59958, 475.500847)"><g><path d="M 7.03125 -5.421875 L 0.359375 -17.421875 L 5.453125 -17.421875 L 9.328125 -10.359375 L 13.109375 -17.421875 L 18.21875 -17.421875 L 11.609375 -5.453125 L 11.609375 0 L 7.03125 0 Z M 7.03125 -5.421875 "/></g></g></g><g fill="#000000" fill-opacity="1"><g transform="translate(274.927108, 475.500847)"><g><path d="M 9.765625 0.171875 C 6.734375 0.171875 4.398438 -0.828125 2.765625 -2.828125 C 1.453125 -4.429688 0.796875 -6.335938 0.796875 -8.546875 C 0.796875 -10.890625 1.453125 -12.914062 2.765625 -14.625 C 4.398438 -16.707031 6.734375 -17.75 9.765625 -17.75 C 12.785156 -17.75 15.128906 -16.707031 16.796875 -14.625 C 18.085938 -12.957031 18.734375 -10.929688 18.734375 -8.546875 C 18.734375 -6.328125 18.085938 -4.421875 16.796875 -2.828125 C 15.128906 -0.828125 12.785156 0.171875 9.765625 0.171875 Z M 6.5625 -4.75 C 7.351562 -3.800781 8.421875 -3.328125 9.765625 -3.328125 C 11.117188 -3.328125 12.1875 -3.800781 12.96875 -4.75 C 13.75 -5.707031 14.140625 -6.972656 14.140625 -8.546875 C 14.140625 -10.210938 13.753906 -11.578125 12.984375 -12.640625 C 12.210938 -13.703125 11.140625 -14.234375 9.765625 -14.234375 C 8.398438 -14.234375 7.328125 -13.703125 6.546875 -12.640625 C 5.773438 -11.578125 5.390625 -10.210938 5.390625 -8.546875 C 5.390625 -6.972656 5.78125 -5.707031 6.5625 -4.75 Z M 6.5625 -4.75 "/></g></g></g><g fill="#000000" fill-opacity="1"><g transform="translate(301.206724, 475.500847)"><g><path d="M 9.625 0.171875 C 6.601562 0.171875 4.378906 -0.75 2.953125 -2.59375 C 1.816406 -4.039062 1.25 -5.875 1.25 -8.09375 L 1.25 -17.421875 L 5.84375 -17.421875 L 5.84375 -8.015625 C 5.84375 -4.890625 7.101562 -3.328125 9.625 -3.328125 C 12.082031 -3.328125 13.3125 -4.890625 13.3125 -8.015625 L 13.3125 -17.421875 L 18.015625 -17.421875 L 18.015625 -8.09375 C 18.015625 -5.851562 17.445312 -4.019531 16.3125 -2.59375 C 14.84375 -0.75 12.613281 0.171875 9.625 0.171875 Z M 9.625 0.171875 "/></g></g></g><g fill="#000000" fill-opacity="1"><g transform="translate(327.218577, 475.500847)"><g><path d="M 16.5 -11.25 C 16.5 -10.238281 16.234375 -9.238281 15.703125 -8.25 C 15.179688 -7.257812 14.414062 -6.457031 13.40625 -5.84375 L 16.171875 0 L 11.109375 0 L 8.71875 -5.0625 L 5.984375 -5.0625 L 5.984375 0 L 1.40625 0 L 1.40625 -17.421875 L 9.5 -17.421875 C 11.800781 -17.421875 13.539062 -16.828125 14.71875 -15.640625 C 15.90625 -14.460938 16.5 -13 16.5 -11.25 Z M 5.984375 -8.546875 L 9.296875 -8.546875 C 10.066406 -8.546875 10.695312 -8.785156 11.1875 -9.265625 C 11.6875 -9.753906 11.9375 -10.40625 11.9375 -11.21875 C 11.9375 -12.039062 11.6875 -12.691406 11.1875 -13.171875 C 10.695312 -13.660156 10.066406 -13.90625 9.296875 -13.90625 L 5.984375 -13.90625 Z M 5.984375 -8.546875 "/></g></g></g><g fill="#000000" fill-opacity="1"><g transform="translate(351.117969, 475.500847)"><g/></g></g><g fill="#000000" fill-opacity="1"><g transform="translate(363.503063, 475.500847)"><g><path d="M 1.40625 -17.421875 L 14.5 -17.421875 L 14.5 -13.90625 L 5.984375 -13.90625 L 5.984375 -9.59375 L 13.3125 -9.59375 L 13.3125 -6.015625 L 5.984375 -6.015625 L 5.984375 0 L 1.40625 0 Z M 1.40625 -17.421875 "/></g></g></g><g fill="#000000" fill-opacity="1"><g transform="translate(385.409034, 475.500847)"><g><path d="M 18.546875 0 L 13.703125 0 L 12.484375 -3.546875 L 6.28125 -3.546875 L 5.0625 0 L 0.203125 0 L 5.921875 -17.421875 L 12.828125 -17.421875 Z M 11.703125 -7.140625 L 9.375 -14.296875 L 7.0625 -7.140625 Z M 11.703125 -7.140625 "/></g></g></g><g fill="#000000" fill-opacity="1"><g transform="translate(410.915078, 475.500847)"><g><path d="M 6.109375 0 L 0.203125 -17.421875 L 5.21875 -17.421875 L 9.5625 -3.75 L 13.90625 -17.421875 L 18.90625 -17.421875 L 13.015625 0 Z M 6.109375 0 "/></g></g></g><g fill="#000000" fill-opacity="1"><g transform="translate(436.778162, 475.500847)"><g><path d="M 9.765625 0.171875 C 6.734375 0.171875 4.398438 -0.828125 2.765625 -2.828125 C 1.453125 -4.429688 0.796875 -6.335938 0.796875 -8.546875 C 0.796875 -10.890625 1.453125 -12.914062 2.765625 -14.625 C 4.398438 -16.707031 6.734375 -17.75 9.765625 -17.75 C 12.785156 -17.75 15.128906 -16.707031 16.796875 -14.625 C 18.085938 -12.957031 18.734375 -10.929688 18.734375 -8.546875 C 18.734375 -6.328125 18.085938 -4.421875 16.796875 -2.828125 C 15.128906 -0.828125 12.785156 0.171875 9.765625 0.171875 Z M 6.5625 -4.75 C 7.351562 -3.800781 8.421875 -3.328125 9.765625 -3.328125 C 11.117188 -3.328125 12.1875 -3.800781 12.96875 -4.75 C 13.75 -5.707031 14.140625 -6.972656 14.140625 -8.546875 C 14.140625 -10.210938 13.753906 -11.578125 12.984375 -12.640625 C 12.210938 -13.703125 11.140625 -14.234375 9.765625 -14.234375 C 8.398438 -14.234375 7.328125 -13.703125 6.546875 -12.640625 C 5.773438 -11.578125 5.390625 -10.210938 5.390625 -8.546875 C 5.390625 -6.972656 5.78125 -5.707031 6.5625 -4.75 Z M 6.5625 -4.75 "/></g></g></g><g fill="#000000" fill-opacity="1"><g transform="translate(463.057774, 475.500847)"><g><path d="M 16.5 -11.25 C 16.5 -10.238281 16.234375 -9.238281 15.703125 -8.25 C 15.179688 -7.257812 14.414062 -6.457031 13.40625 -5.84375 L 16.171875 0 L 11.109375 0 L 8.71875 -5.0625 L 5.984375 -5.0625 L 5.984375 0 L 1.40625 0 L 1.40625 -17.421875 L 9.5 -17.421875 C 11.800781 -17.421875 13.539062 -16.828125 14.71875 -15.640625 C 15.90625 -14.460938 16.5 -13 16.5 -11.25 Z M 5.984375 -8.546875 L 9.296875 -8.546875 C 10.066406 -8.546875 10.695312 -8.785156 11.1875 -9.265625 C 11.6875 -9.753906 11.9375 -10.40625 11.9375 -11.21875 C 11.9375 -12.039062 11.6875 -12.691406 11.1875 -13.171875 C 10.695312 -13.660156 10.066406 -13.90625 9.296875 -13.90625 L 5.984375 -13.90625 Z M 5.984375 -8.546875 "/></g></g></g><g fill="#000000" fill-opacity="1"><g transform="translate(486.957181, 475.500847)"><g><path d="M 1.421875 -17.421875 L 6.015625 -17.421875 L 6.015625 0 L 1.421875 0 Z M 1.421875 -17.421875 "/></g></g></g><g fill="#000000" fill-opacity="1"><g transform="translate(501.157176, 475.500847)"><g><path d="M 9.984375 0 L 5.390625 0 L 5.390625 -13.90625 L 0.359375 -13.90625 L 0.359375 -17.421875 L 15.015625 -17.421875 L 15.015625 -13.90625 L 9.984375 -13.90625 Z M 9.984375 0 "/></g></g></g><g fill="#000000" fill-opacity="1"><g transform="translate(523.271397, 475.500847)"><g><path d="M 1.40625 -17.421875 L 14.53125 -17.421875 L 14.53125 -13.90625 L 5.984375 -13.90625 L 5.984375 -10.421875 L 12.484375 -10.421875 L 12.484375 -6.84375 L 5.984375 -6.84375 L 5.984375 -3.515625 L 14.53125 -3.515625 L 14.53125 0 L 1.40625 0 Z M 1.40625 -17.421875 "/></g></g></g><g fill="#000000" fill-opacity="1"><g transform="translate(545.504649, 475.500847)"><g/></g></g><g fill="#000000" fill-opacity="1"><g transform="translate(557.889743, 475.500847)"><g><path d="M 9.984375 0 L 5.390625 0 L 5.390625 -13.90625 L 0.359375 -13.90625 L 0.359375 -17.421875 L 15.015625 -17.421875 L 15.015625 -13.90625 L 9.984375 -13.90625 Z M 9.984375 0 "/></g></g></g><g fill="#000000" fill-opacity="1"><g transform="translate(580.003964, 475.500847)"><g><path d="M 6.109375 0 L 0.203125 -17.421875 L 5.21875 -17.421875 L 9.5625 -3.75 L 13.90625 -17.421875 L 18.90625 -17.421875 L 13.015625 0 Z M 6.109375 0 "/></g></g></g></svg>