<svg xmlns="http://www.w3.org/2000/svg" xmlns:xlink="http://www.w3.org/1999/xlink" width="1024" zoomAndPan="magnify" viewBox="0 0 768 767.999994" height="1024" preserveAspectRatio="xMidYMid meet" version="1.0"><defs><g/><clipPath id="id1"><path d="M 235.902344 59.367188 L 532.152344 59.367188 L 532.152344 406.617188 L 235.902344 406.617188 Z M 235.902344 59.367188 " clip-rule="nonzero"/></clipPath></defs><rect x="-76.8" width="921.6" fill="#ffffff" y="-76.799999" height="921.599993" fill-opacity="1"/><rect x="-76.8" width="921.6" fill="#ffffff" y="-76.799999" height="921.599993" fill-opacity="1"/><rect x="-76.8" width="921.6" fill="#ffffff" y="-76.799999" height="921.599993" fill-opacity="1"/><g clip-path="url(#id1)"><path fill="#000000" d="M 456.285156 175.304688 L 436.59375 175.304688 L 448.296875 161.75 C 450.988281 162.394531 453.765625 162.734375 456.667969 162.734375 C 476.234375 162.734375 492.210938 146.832031 492.339844 127.253906 C 492.46875 107.546875 476.535156 91.429688 456.667969 91.34375 C 437.105469 91.34375 421.085938 107.246094 421 126.824219 C 420.957031 131.871094 421.980469 136.871094 423.988281 141.445312 L 395.199219 175.304688 L 382.597656 175.304688 L 346.628906 130.800781 C 351.15625 123.492188 353.632812 115.027344 353.71875 106.347656 C 353.804688 93.867188 349.019531 82.109375 340.261719 73.261719 C 331.503906 64.371094 319.84375 59.453125 307.070312 59.367188 C 281.523438 59.367188 260.59375 80.1875 260.421875 105.792969 C 260.335938 118.277344 265.121094 130.03125 273.878906 138.921875 C 282.632812 147.816406 294.339844 152.730469 307.070312 152.816406 C 310.402344 152.816406 313.734375 152.476562 316.9375 151.792969 L 335.863281 175.386719 L 311.726562 175.386719 C 277.59375 175.304688 235.984375 185.605469 235.984375 256.183594 L 235.984375 330.78125 C 235.984375 372.503906 270.074219 406.617188 311.769531 406.617188 L 456.285156 406.617188 C 497.9375 406.617188 532.066406 372.503906 532.066406 330.78125 L 532.066406 256.183594 C 532.066406 193.472656 490.417969 175.304688 456.285156 175.304688 Z M 463.890625 362.800781 L 304.164062 362.800781 C 292.417969 362.800781 282.507812 352.882812 282.507812 341.125 L 282.59375 256.183594 L 282.59375 243.230469 C 283.019531 231.816406 292.714844 222.328125 304.164062 222.328125 L 463.890625 222.328125 C 475.636719 222.328125 485.546875 232.246094 485.546875 244 L 485.460938 328.984375 L 485.546875 328.984375 L 485.546875 341.125 C 485.546875 352.882812 475.636719 362.800781 463.890625 362.800781 Z M 463.890625 362.800781 " fill-opacity="1" fill-rule="nonzero"/></g><path fill="#fcc509" d="M 351.796875 317.699219 C 351.710938 303.933594 351.625 281.363281 351.539062 267.597656 C 351.453125 253.832031 361.75 248.148438 373.539062 254.945312 C 385.289062 261.785156 404.9375 272.941406 416.683594 279.78125 C 428.433594 286.621094 428.6875 297.863281 416.984375 304.832031 C 405.28125 311.800781 385.5 323.171875 373.796875 330.097656 C 362.132812 337.066406 351.839844 331.464844 351.796875 317.699219 Z M 351.796875 317.699219 " fill-opacity="1" fill-rule="nonzero"/><g fill="#fcc509" fill-opacity="1"><g transform="translate(23.834484, 569.076303)"><g><path d="M 90.109375 -71.734375 L 132.203125 0 L 93.46875 0 L 66.984375 -48.015625 L 40.703125 0 L 2.375 0 L 44.46875 -71.53125 L 6.515625 -138.328125 L 44.65625 -138.328125 L 67.390625 -94.859375 L 90.109375 -138.328125 L 128.046875 -138.328125 Z M 90.109375 -71.734375 "/></g></g></g><g fill="#fcc509" fill-opacity="1"><g transform="translate(150.475901, 569.076303)"><g><path d="M 75.296875 -105.328125 C 83.722656 -105.328125 91.820312 -103.085938 99.59375 -98.609375 C 107.363281 -94.128906 113.6875 -87.804688 118.5625 -79.640625 C 123.4375 -71.472656 125.875 -62.050781 125.875 -51.375 C 125.875 -40.707031 123.4375 -31.253906 118.5625 -23.015625 C 113.6875 -14.785156 107.363281 -8.460938 99.59375 -4.046875 C 91.820312 0.359375 83.722656 2.5625 75.296875 2.5625 C 62.773438 2.5625 52.828125 -0.925781 45.453125 -7.90625 L 45.453125 39.515625 L 12.453125 39.515625 L 12.453125 -102.75 L 43.078125 -102.75 L 43.078125 -92.671875 C 50.847656 -101.109375 61.585938 -105.328125 75.296875 -105.328125 Z M 68.578125 -26.671875 C 75.679688 -26.671875 81.570312 -29.007812 86.25 -33.6875 C 90.925781 -38.363281 93.265625 -44.257812 93.265625 -51.375 C 93.265625 -58.488281 90.925781 -64.382812 86.25 -69.0625 C 81.570312 -73.738281 75.679688 -76.078125 68.578125 -76.078125 C 61.460938 -76.078125 55.566406 -73.738281 50.890625 -69.0625 C 46.210938 -64.382812 43.875 -58.488281 43.875 -51.375 C 43.875 -44.257812 46.210938 -38.363281 50.890625 -33.6875 C 55.566406 -29.007812 61.460938 -26.671875 68.578125 -26.671875 Z M 68.578125 -26.671875 "/></g></g></g><g fill="#fcc509" fill-opacity="1"><g transform="translate(274.548901, 569.076303)"><g><path d="M 60.859375 -105.328125 C 70.609375 -105.328125 79.664062 -103.085938 88.03125 -98.609375 C 96.394531 -94.128906 103.113281 -87.835938 108.1875 -79.734375 C 113.257812 -71.628906 115.796875 -62.441406 115.796875 -52.171875 C 115.796875 -49.140625 115.46875 -45.648438 114.8125 -41.703125 L 38.53125 -41.703125 C 39.851562 -35.503906 42.488281 -30.691406 46.4375 -27.265625 C 50.382812 -23.835938 55.328125 -22.125 61.265625 -22.125 C 66.003906 -22.125 69.988281 -22.976562 73.21875 -24.6875 C 76.445312 -26.40625 79.179688 -28.976562 81.421875 -32.40625 L 112.828125 -32.40625 C 109.015625 -22 102.628906 -13.566406 93.671875 -7.109375 C 84.710938 -0.660156 73.773438 2.5625 60.859375 2.5625 C 50.984375 2.5625 41.828125 0.320312 33.390625 -4.15625 C 24.960938 -8.632812 18.210938 -14.957031 13.140625 -23.125 C 8.066406 -31.289062 5.53125 -40.707031 5.53125 -51.375 C 5.53125 -62.050781 8.066406 -71.472656 13.140625 -79.640625 C 18.210938 -87.804688 24.960938 -94.128906 33.390625 -98.609375 C 41.828125 -103.085938 50.984375 -105.328125 60.859375 -105.328125 Z M 60.859375 -80.421875 C 55.328125 -80.421875 50.617188 -78.875 46.734375 -75.78125 C 42.847656 -72.6875 40.179688 -68.175781 38.734375 -62.25 L 83.390625 -62.25 C 82.335938 -67.644531 79.898438 -72.019531 76.078125 -75.375 C 72.253906 -78.738281 67.179688 -80.421875 60.859375 -80.421875 Z M 60.859375 -80.421875 "/></g></g></g><g fill="#fcc509" fill-opacity="1"><g transform="translate(388.150626, 569.076303)"><g><path d="M 82.796875 -103.9375 L 82.796875 -74.703125 L 69.5625 -74.703125 C 62.84375 -74.703125 57.144531 -72.425781 52.46875 -67.875 C 47.789062 -63.332031 45.453125 -57.503906 45.453125 -50.390625 L 45.453125 0 L 12.453125 0 L 12.453125 -102.75 L 43.078125 -102.75 L 43.078125 -90.90625 C 50.984375 -99.59375 61.523438 -103.9375 74.703125 -103.9375 Z M 82.796875 -103.9375 "/></g></g></g><g fill="#fcc509" fill-opacity="1"><g transform="translate(465.201709, 569.076303)"><g><path d="M 76.671875 -73.703125 L 53.15625 -73.703125 L 53.15625 -44.859375 C 53.15625 -39.984375 54.503906 -36.160156 57.203125 -33.390625 C 59.910156 -30.628906 63.703125 -29.25 68.578125 -29.25 L 76.671875 -29.25 L 76.671875 0 L 58.5 0 C 46.238281 0 36.78125 -3.421875 30.125 -10.265625 C 23.476562 -17.117188 20.15625 -26.609375 20.15625 -38.734375 L 20.15625 -73.703125 L 3.359375 -73.703125 L 3.359375 -102.75 L 20.15625 -102.75 L 20.15625 -130.03125 L 53.15625 -130.03125 L 53.15625 -102.75 L 76.671875 -102.75 Z M 76.671875 -73.703125 "/></g></g></g><g fill="#000000" fill-opacity="1"><g transform="translate(527.769529, 556.421219)"><g><path d="M 24.28125 0 L 4.234375 0 L 19.578125 -80.15625 L 39.609375 -80.15625 Z M 24.28125 0 "/></g></g></g><g fill="#000000" fill-opacity="1"><g transform="translate(563.141715, 556.421219)"><g><path d="M 46.265625 -80.15625 C 51.828125 -80.15625 56.785156 -79.140625 61.140625 -77.109375 C 65.492188 -75.085938 68.910156 -72.222656 71.390625 -68.515625 C 73.867188 -64.816406 75.109375 -60.488281 75.109375 -55.53125 C 75.109375 -50.488281 73.828125 -45.753906 71.265625 -41.328125 C 68.710938 -36.898438 64.898438 -33.3125 59.828125 -30.5625 C 54.753906 -27.820312 48.628906 -26.453125 41.453125 -26.453125 L 28.859375 -26.453125 L 23.8125 0 L 3.65625 0 L 19 -80.15625 Z M 41.796875 -43.515625 C 45.992188 -43.515625 49.175781 -44.539062 51.34375 -46.59375 C 53.519531 -48.65625 54.609375 -51.210938 54.609375 -54.265625 C 54.609375 -57.015625 53.613281 -59.171875 51.625 -60.734375 C 49.644531 -62.304688 47.054688 -63.09375 43.859375 -63.09375 L 35.953125 -63.09375 L 32.171875 -43.515625 Z M 41.796875 -43.515625 "/></g></g></g><g fill="#000000" fill-opacity="1"><g transform="translate(632.971215, 556.421219)"><g><path d="M 36.40625 0 L 16.375 0 L 28.28125 -62.0625 L 8.703125 -62.0625 L 12.140625 -80.15625 L 71.328125 -80.15625 L 67.90625 -62.0625 L 48.3125 -62.0625 Z M 36.40625 0 "/></g></g></g><g fill="#000000" fill-opacity="1"><g transform="translate(692.383377, 556.421219)"><g><path d="M 30.921875 -21.875 L 51.875 -59.546875 L 72.359375 -59.546875 L 35.953125 0 L 18.890625 0 L 5.375 -59.546875 L 24.28125 -59.546875 Z M 30.921875 -21.875 "/></g></g></g><g fill="#000000" fill-opacity="1"><g transform="translate(54.995369, 623.278935)"><g><path d="M 10.5625 -8.140625 L 0.53125 -26.1875 L 8.1875 -26.1875 L 14.015625 -15.578125 L 19.703125 -26.1875 L 27.390625 -26.1875 L 17.453125 -8.1875 L 17.453125 0 L 10.5625 0 Z M 10.5625 -8.140625 "/></g></g></g><g fill="#000000" fill-opacity="1"><g transform="translate(93.065364, 623.278935)"><g><path d="M 14.6875 0.265625 C 10.113281 0.265625 6.601562 -1.238281 4.15625 -4.25 C 2.1875 -6.664062 1.203125 -9.53125 1.203125 -12.84375 C 1.203125 -16.363281 2.1875 -19.410156 4.15625 -21.984375 C 6.601562 -25.117188 10.113281 -26.6875 14.6875 -26.6875 C 19.21875 -26.6875 22.738281 -25.117188 25.25 -21.984375 C 27.1875 -19.472656 28.15625 -16.425781 28.15625 -12.84375 C 28.15625 -9.5 27.1875 -6.632812 25.25 -4.25 C 22.738281 -1.238281 19.21875 0.265625 14.6875 0.265625 Z M 9.875 -7.15625 C 11.050781 -5.726562 12.65625 -5.015625 14.6875 -5.015625 C 16.71875 -5.015625 18.320312 -5.726562 19.5 -7.15625 C 20.675781 -8.59375 21.265625 -10.488281 21.265625 -12.84375 C 21.265625 -15.351562 20.679688 -17.40625 19.515625 -19 C 18.347656 -20.59375 16.734375 -21.390625 14.671875 -21.390625 C 12.617188 -21.390625 11.007812 -20.59375 9.84375 -19 C 8.6875 -17.40625 8.109375 -15.351562 8.109375 -12.84375 C 8.109375 -10.488281 8.695312 -8.59375 9.875 -7.15625 Z M 9.875 -7.15625 "/></g></g></g><g fill="#000000" fill-opacity="1"><g transform="translate(132.566448, 623.278935)"><g><path d="M 14.453125 0.265625 C 9.921875 0.265625 6.582031 -1.117188 4.4375 -3.890625 C 2.726562 -6.066406 1.875 -8.828125 1.875 -12.171875 L 1.875 -26.1875 L 8.78125 -26.1875 L 8.78125 -12.046875 C 8.78125 -7.359375 10.671875 -5.015625 14.453125 -5.015625 C 18.160156 -5.015625 20.015625 -7.359375 20.015625 -12.046875 L 20.015625 -26.1875 L 27.078125 -26.1875 L 27.078125 -12.171875 C 27.078125 -8.804688 26.226562 -6.046875 24.53125 -3.890625 C 22.320312 -1.117188 18.960938 0.265625 14.453125 0.265625 Z M 14.453125 0.265625 "/></g></g></g><g fill="#000000" fill-opacity="1"><g transform="translate(171.665058, 623.278935)"><g><path d="M 24.796875 -16.921875 C 24.796875 -15.398438 24.398438 -13.890625 23.609375 -12.390625 C 22.816406 -10.898438 21.660156 -9.695312 20.140625 -8.78125 L 24.3125 0 L 16.703125 0 L 13.109375 -7.609375 L 9 -7.609375 L 9 0 L 2.109375 0 L 2.109375 -26.1875 L 14.28125 -26.1875 C 17.738281 -26.1875 20.351562 -25.296875 22.125 -23.515625 C 23.90625 -21.742188 24.796875 -19.546875 24.796875 -16.921875 Z M 9 -12.84375 L 13.96875 -12.84375 C 15.132812 -12.84375 16.085938 -13.207031 16.828125 -13.9375 C 17.578125 -14.675781 17.953125 -15.65625 17.953125 -16.875 C 17.953125 -18.101562 17.578125 -19.082031 16.828125 -19.8125 C 16.085938 -20.539062 15.132812 -20.90625 13.96875 -20.90625 L 9 -20.90625 Z M 9 -12.84375 "/></g></g></g><g fill="#000000" fill-opacity="1"><g transform="translate(207.585518, 623.278935)"><g/></g></g><g fill="#000000" fill-opacity="1"><g transform="translate(226.201649, 623.278935)"><g/></g></g><g fill="#000000" fill-opacity="1"><g transform="translate(244.781529, 623.278935)"><g><path d="M 2.109375 -26.1875 L 21.796875 -26.1875 L 21.796875 -20.90625 L 9 -20.90625 L 9 -14.421875 L 20.015625 -14.421875 L 20.015625 -9.046875 L 9 -9.046875 L 9 0 L 2.109375 0 Z M 2.109375 -26.1875 "/></g></g></g><g fill="#000000" fill-opacity="1"><g transform="translate(277.708562, 623.278935)"><g><path d="M 27.890625 0 L 20.59375 0 L 18.75 -5.328125 L 9.453125 -5.328125 L 7.609375 0 L 0.3125 0 L 8.90625 -26.1875 L 19.296875 -26.1875 Z M 17.59375 -10.75 L 14.09375 -21.484375 L 10.609375 -10.75 Z M 17.59375 -10.75 "/></g></g></g><g fill="#000000" fill-opacity="1"><g transform="translate(316.046891, 623.278935)"><g><path d="M 9.171875 0 L 0.3125 -26.1875 L 7.828125 -26.1875 L 14.375 -5.640625 L 20.90625 -26.1875 L 28.421875 -26.1875 L 19.5625 0 Z M 9.171875 0 "/></g></g></g><g fill="#000000" fill-opacity="1"><g transform="translate(354.921895, 623.278935)"><g><path d="M 14.6875 0.265625 C 10.113281 0.265625 6.601562 -1.238281 4.15625 -4.25 C 2.1875 -6.664062 1.203125 -9.53125 1.203125 -12.84375 C 1.203125 -16.363281 2.1875 -19.410156 4.15625 -21.984375 C 6.601562 -25.117188 10.113281 -26.6875 14.6875 -26.6875 C 19.21875 -26.6875 22.738281 -25.117188 25.25 -21.984375 C 27.1875 -19.472656 28.15625 -16.425781 28.15625 -12.84375 C 28.15625 -9.5 27.1875 -6.632812 25.25 -4.25 C 22.738281 -1.238281 19.21875 0.265625 14.6875 0.265625 Z M 9.875 -7.15625 C 11.050781 -5.726562 12.65625 -5.015625 14.6875 -5.015625 C 16.71875 -5.015625 18.320312 -5.726562 19.5 -7.15625 C 20.675781 -8.59375 21.265625 -10.488281 21.265625 -12.84375 C 21.265625 -15.351562 20.679688 -17.40625 19.515625 -19 C 18.347656 -20.59375 16.734375 -21.390625 14.671875 -21.390625 C 12.617188 -21.390625 11.007812 -20.59375 9.84375 -19 C 8.6875 -17.40625 8.109375 -15.351562 8.109375 -12.84375 C 8.109375 -10.488281 8.695312 -8.59375 9.875 -7.15625 Z M 9.875 -7.15625 "/></g></g></g><g fill="#000000" fill-opacity="1"><g transform="translate(394.422974, 623.278935)"><g><path d="M 24.796875 -16.921875 C 24.796875 -15.398438 24.398438 -13.890625 23.609375 -12.390625 C 22.816406 -10.898438 21.660156 -9.695312 20.140625 -8.78125 L 24.3125 0 L 16.703125 0 L 13.109375 -7.609375 L 9 -7.609375 L 9 0 L 2.109375 0 L 2.109375 -26.1875 L 14.28125 -26.1875 C 17.738281 -26.1875 20.351562 -25.296875 22.125 -23.515625 C 23.90625 -21.742188 24.796875 -19.546875 24.796875 -16.921875 Z M 9 -12.84375 L 13.96875 -12.84375 C 15.132812 -12.84375 16.085938 -13.207031 16.828125 -13.9375 C 17.578125 -14.675781 17.953125 -15.65625 17.953125 -16.875 C 17.953125 -18.101562 17.578125 -19.082031 16.828125 -19.8125 C 16.085938 -20.539062 15.132812 -20.90625 13.96875 -20.90625 L 9 -20.90625 Z M 9 -12.84375 "/></g></g></g><g fill="#000000" fill-opacity="1"><g transform="translate(430.346328, 623.278935)"><g><path d="M 2.15625 -26.1875 L 9.046875 -26.1875 L 9.046875 0 L 2.15625 0 Z M 2.15625 -26.1875 "/></g></g></g><g fill="#000000" fill-opacity="1"><g transform="translate(451.690446, 623.278935)"><g><path d="M 15 0 L 8.109375 0 L 8.109375 -20.90625 L 0.53125 -20.90625 L 0.53125 -26.1875 L 22.5625 -26.1875 L 22.5625 -20.90625 L 15 -20.90625 Z M 15 0 "/></g></g></g><g fill="#000000" fill-opacity="1"><g transform="translate(484.930495, 623.278935)"><g><path d="M 2.109375 -26.1875 L 21.84375 -26.1875 L 21.84375 -20.90625 L 9 -20.90625 L 9 -15.671875 L 18.75 -15.671875 L 18.75 -10.296875 L 9 -10.296875 L 9 -5.28125 L 21.84375 -5.28125 L 21.84375 0 L 2.109375 0 Z M 2.109375 -26.1875 "/></g></g></g><g fill="#000000" fill-opacity="1"><g transform="translate(518.349462, 623.278935)"><g/></g></g><g fill="#000000" fill-opacity="1"><g transform="translate(536.965587, 623.278935)"><g><path d="M 15 0 L 8.109375 0 L 8.109375 -20.90625 L 0.53125 -20.90625 L 0.53125 -26.1875 L 22.5625 -26.1875 L 22.5625 -20.90625 L 15 -20.90625 Z M 15 0 "/></g></g></g><g fill="#000000" fill-opacity="1"><g transform="translate(570.205637, 623.278935)"><g><path d="M 9.171875 0 L 0.3125 -26.1875 L 7.828125 -26.1875 L 14.375 -5.640625 L 20.90625 -26.1875 L 28.421875 -26.1875 L 19.5625 0 Z M 9.171875 0 "/></g></g></g></svg>