<svg xmlns="http://www.w3.org/2000/svg" xmlns:xlink="http://www.w3.org/1999/xlink" width="1024" zoomAndPan="magnify" viewBox="0 0 768 767.999994" height="1024" preserveAspectRatio="xMidYMid meet" version="1.0"><defs><clipPath id="id1"><path d="M 87.777344 30.605469 L 691.527344 30.605469 L 691.527344 737.105469 L 87.777344 737.105469 Z M 87.777344 30.605469 " clip-rule="nonzero"/></clipPath></defs><rect x="-76.8" width="921.6" fill="#ffffff" y="-76.799999" height="921.599993" fill-opacity="1"/><rect x="-76.8" width="921.6" fill="#ffffff" y="-76.799999" height="921.599993" fill-opacity="1"/><rect x="-76.8" width="921.6" fill="#ffffff" y="-76.799999" height="921.599993" fill-opacity="1"/><g clip-path="url(#id1)"><path fill="#000000" d="M 536.910156 266.480469 L 496.777344 266.480469 L 520.628906 238.910156 C 526.117188 240.214844 531.773438 240.910156 537.695312 240.910156 C 577.566406 240.910156 610.125 208.554688 610.386719 168.722656 C 610.648438 128.625 578.175781 95.835938 537.695312 95.664062 C 497.820312 95.664062 465.175781 128.015625 465 167.851562 C 464.914062 178.113281 467.003906 188.292969 471.09375 197.597656 L 412.417969 266.480469 L 386.738281 266.480469 L 313.433594 175.941406 C 322.664062 161.066406 327.710938 143.847656 327.886719 126.191406 C 328.058594 100.792969 318.308594 76.875 300.464844 58.871094 C 282.617188 40.78125 258.851562 30.777344 232.820312 30.605469 C 180.757812 30.605469 138.101562 72.960938 137.753906 125.058594 C 137.578125 150.457031 147.328125 174.375 165.175781 192.464844 C 183.023438 210.558594 206.875 220.558594 232.820312 220.734375 C 239.609375 220.734375 246.402344 220.039062 252.929688 218.644531 L 291.496094 266.65625 L 242.308594 266.65625 C 172.75 266.480469 87.957031 287.441406 87.957031 431.039062 L 87.957031 582.8125 C 87.957031 667.699219 157.429688 737.105469 242.394531 737.105469 L 536.910156 737.105469 C 621.792969 737.105469 691.351562 667.699219 691.351562 582.8125 L 691.351562 431.039062 C 691.351562 303.445312 606.46875 266.480469 536.910156 266.480469 Z M 552.40625 647.957031 L 226.898438 647.957031 C 202.960938 647.957031 182.761719 627.777344 182.761719 603.859375 L 182.9375 431.039062 L 182.9375 404.6875 C 183.804688 381.464844 203.570312 362.15625 226.898438 362.15625 L 552.40625 362.15625 C 576.347656 362.15625 596.542969 382.332031 596.542969 406.25 L 596.371094 579.15625 L 596.542969 579.15625 L 596.542969 603.859375 C 596.542969 627.777344 576.347656 647.957031 552.40625 647.957031 Z M 552.40625 647.957031 " fill-opacity="1" fill-rule="nonzero"/></g><path fill="#fcc509" d="M 323.96875 556.195312 C 323.792969 528.191406 323.621094 482.265625 323.445312 454.261719 C 323.273438 426.253906 344.253906 414.6875 368.28125 428.515625 C 392.222656 442.433594 432.269531 465.132812 456.207031 479.050781 C 480.148438 492.964844 480.671875 515.839844 456.816406 530.015625 C 432.964844 544.195312 392.65625 567.328125 368.804688 581.417969 C 345.035156 595.597656 324.054688 584.203125 323.96875 556.195312 Z M 323.96875 556.195312 " fill-opacity="1" fill-rule="nonzero"/></svg>