<svg xmlns="http://www.w3.org/2000/svg" xmlns:xlink="http://www.w3.org/1999/xlink" width="1024" zoomAndPan="magnify" viewBox="0 0 768 767.999994" height="1024" preserveAspectRatio="xMidYMid meet" version="1.0"><defs><clipPath id="id1"><path d="M 105.535156 38.867188 L 662.785156 38.867188 L 662.785156 691.367188 L 105.535156 691.367188 Z M 105.535156 38.867188 " clip-rule="nonzero"/></clipPath></defs><rect x="-76.8" width="921.6" fill="#000000" y="-76.799999" height="921.599993" fill-opacity="1"/><rect x="-76.8" width="921.6" fill="#ffffff" y="-76.799999" height="921.599993" fill-opacity="1"/><rect x="-76.8" width="921.6" fill="#000000" y="-76.799999" height="921.599993" fill-opacity="1"/><g clip-path="url(#id1)"><path fill="#fbc50c" d="M 520.078125 256.714844 L 483.035156 256.714844 L 505.050781 231.25 C 510.113281 232.457031 515.335938 233.097656 520.800781 233.097656 C 557.601562 233.097656 587.65625 203.214844 587.894531 166.425781 C 588.136719 129.394531 558.164062 99.113281 520.800781 98.953125 C 484 98.953125 453.867188 128.832031 453.707031 165.625 C 453.625 175.101562 455.554688 184.5 459.332031 193.09375 L 405.171875 256.714844 L 381.46875 256.714844 L 313.8125 173.09375 C 322.328125 159.359375 326.988281 143.453125 327.148438 127.148438 C 327.308594 103.691406 318.3125 81.601562 301.839844 64.972656 C 285.367188 48.265625 263.429688 39.027344 239.402344 38.867188 C 191.351562 38.867188 151.980469 77.984375 151.660156 126.101562 C 151.496094 149.558594 160.496094 171.648438 176.96875 188.355469 C 193.441406 205.0625 215.457031 214.300781 239.402344 214.460938 C 245.671875 214.460938 251.9375 213.820312 257.964844 212.535156 L 293.5625 256.875 L 248.164062 256.875 C 183.960938 256.714844 105.695312 276.074219 105.695312 408.695312 L 105.695312 548.867188 C 105.695312 627.265625 169.816406 691.367188 248.242188 691.367188 L 520.078125 691.367188 C 598.421875 691.367188 662.625 627.265625 662.625 548.867188 L 662.625 408.695312 C 662.625 290.855469 584.28125 256.714844 520.078125 256.714844 Z M 534.378906 609.03125 L 233.941406 609.03125 C 211.84375 609.03125 193.199219 590.394531 193.199219 568.304688 L 193.363281 408.695312 L 193.363281 384.355469 C 194.164062 362.90625 212.40625 345.074219 233.941406 345.074219 L 534.378906 345.074219 C 556.476562 345.074219 575.121094 363.710938 575.121094 385.800781 L 574.957031 545.492188 L 575.121094 545.492188 L 575.121094 568.304688 C 575.121094 590.394531 556.476562 609.03125 534.378906 609.03125 Z M 534.378906 609.03125 " fill-opacity="1" fill-rule="nonzero"/></g><path fill="#ffffff" d="M 323.535156 524.285156 C 323.371094 498.421875 323.210938 456.007812 323.050781 430.140625 C 322.890625 404.277344 342.257812 393.59375 364.433594 406.363281 C 386.53125 419.21875 423.492188 440.183594 445.589844 453.035156 C 467.6875 465.886719 468.167969 487.011719 446.152344 500.105469 C 424.136719 513.199219 386.933594 534.566406 364.914062 547.582031 C 342.980469 560.675781 323.613281 550.152344 323.535156 524.285156 Z M 323.535156 524.285156 " fill-opacity="1" fill-rule="nonzero"/></svg>