<svg xmlns="http://www.w3.org/2000/svg" xmlns:xlink="http://www.w3.org/1999/xlink" width="1024" zoomAndPan="magnify" viewBox="0 0 768 767.999994" height="1024" preserveAspectRatio="xMidYMid meet" version="1.0"><defs><g/><clipPath id="id1"><path d="M 116.832031 288.425781 L 260.832031 288.425781 L 260.832031 457.175781 L 116.832031 457.175781 Z M 116.832031 288.425781 " clip-rule="nonzero"/></clipPath></defs><rect x="-76.8" width="921.6" fill="#000000" y="-76.799999" height="921.599993" fill-opacity="1"/><rect x="-76.8" width="921.6" fill="#ffffff" y="-76.799999" height="921.599993" fill-opacity="1"/><rect x="-76.8" width="921.6" fill="#000000" y="-76.799999" height="921.599993" fill-opacity="1"/><g clip-path="url(#id1)"><path fill="#fbc50c" d="M 223.953125 344.765625 L 214.378906 344.765625 L 220.070312 338.179688 C 221.378906 338.488281 222.726562 338.65625 224.140625 338.65625 C 233.648438 338.65625 241.414062 330.929688 241.476562 321.414062 C 241.539062 311.835938 233.792969 304.003906 224.140625 303.964844 C 214.628906 303.964844 206.84375 311.691406 206.800781 321.207031 C 206.78125 323.65625 207.277344 326.085938 208.253906 328.3125 L 194.261719 344.765625 L 188.136719 344.765625 L 170.652344 323.136719 C 172.851562 319.585938 174.058594 315.472656 174.097656 311.253906 C 174.140625 305.1875 171.816406 299.476562 167.558594 295.175781 C 163.300781 290.855469 157.632812 288.464844 151.425781 288.425781 C 139.007812 288.425781 128.835938 298.542969 128.75 310.984375 C 128.710938 317.050781 131.035156 322.765625 135.292969 327.085938 C 139.546875 331.40625 145.238281 333.796875 151.425781 333.835938 C 153.042969 333.835938 154.664062 333.671875 156.222656 333.339844 L 165.417969 344.804688 L 153.6875 344.804688 C 137.097656 344.765625 116.875 349.769531 116.875 384.070312 L 116.875 420.320312 C 116.875 440.597656 133.445312 457.175781 153.707031 457.175781 L 223.953125 457.175781 C 244.195312 457.175781 260.789062 440.597656 260.789062 420.320312 L 260.789062 384.070312 C 260.789062 353.59375 240.542969 344.765625 223.953125 344.765625 Z M 227.648438 435.878906 L 150.011719 435.878906 C 144.304688 435.878906 139.484375 431.0625 139.484375 425.347656 L 139.527344 384.070312 L 139.527344 377.773438 C 139.734375 372.226562 144.449219 367.617188 150.011719 367.617188 L 227.648438 367.617188 C 233.359375 367.617188 238.175781 372.433594 238.175781 378.148438 L 238.132812 419.449219 L 238.175781 419.449219 L 238.175781 425.347656 C 238.175781 431.0625 233.359375 435.878906 227.648438 435.878906 Z M 227.648438 435.878906 " fill-opacity="1" fill-rule="nonzero"/></g><path fill="#ffffff" d="M 173.164062 413.964844 C 173.121094 407.273438 173.082031 396.304688 173.039062 389.617188 C 173 382.925781 178.003906 380.164062 183.734375 383.464844 C 189.441406 386.789062 198.996094 392.210938 204.703125 395.535156 C 210.414062 398.859375 210.539062 404.324219 204.851562 407.710938 C 199.160156 411.097656 189.546875 416.621094 183.859375 419.988281 C 178.1875 423.375 173.183594 420.652344 173.164062 413.964844 Z M 173.164062 413.964844 " fill-opacity="1" fill-rule="nonzero"/><g fill="#ffffff" fill-opacity="1"><g transform="translate(281.911307, 415.326653)"><g><path d="M 50 -39.796875 L 73.34375 0 L 51.859375 0 L 37.171875 -26.640625 L 22.59375 0 L 1.3125 0 L 24.671875 -39.6875 L 3.625 -76.75 L 24.78125 -76.75 L 37.390625 -52.625 L 50 -76.75 L 71.046875 -76.75 Z M 50 -39.796875 "/></g></g></g><g fill="#ffffff" fill-opacity="1"><g transform="translate(352.184003, 415.326653)"><g><path d="M 41.765625 -58.4375 C 46.453125 -58.4375 50.953125 -57.191406 55.265625 -54.703125 C 59.578125 -52.222656 63.082031 -48.71875 65.78125 -44.1875 C 68.488281 -39.65625 69.84375 -34.425781 69.84375 -28.5 C 69.84375 -22.582031 68.488281 -17.335938 65.78125 -12.765625 C 63.082031 -8.203125 59.578125 -4.695312 55.265625 -2.25 C 50.953125 0.195312 46.453125 1.421875 41.765625 1.421875 C 34.828125 1.421875 29.3125 -0.515625 25.21875 -4.390625 L 25.21875 21.921875 L 6.90625 21.921875 L 6.90625 -57.015625 L 23.90625 -57.015625 L 23.90625 -51.421875 C 28.21875 -56.097656 34.171875 -58.4375 41.765625 -58.4375 Z M 38.046875 -14.796875 C 41.992188 -14.796875 45.265625 -16.09375 47.859375 -18.6875 C 50.453125 -21.289062 51.75 -24.5625 51.75 -28.5 C 51.75 -32.445312 50.453125 -35.71875 47.859375 -38.3125 C 45.265625 -40.914062 41.992188 -42.21875 38.046875 -42.21875 C 34.097656 -42.21875 30.828125 -40.914062 28.234375 -38.3125 C 25.640625 -35.71875 24.34375 -32.445312 24.34375 -28.5 C 24.34375 -24.5625 25.640625 -21.289062 28.234375 -18.6875 C 30.828125 -16.09375 34.097656 -14.796875 38.046875 -14.796875 Z M 38.046875 -14.796875 "/></g></g></g><g fill="#ffffff" fill-opacity="1"><g transform="translate(421.031489, 415.326653)"><g><path d="M 33.765625 -58.4375 C 39.171875 -58.4375 44.195312 -57.191406 48.84375 -54.703125 C 53.488281 -52.222656 57.21875 -48.734375 60.03125 -44.234375 C 62.84375 -39.742188 64.25 -34.644531 64.25 -28.9375 C 64.25 -27.257812 64.066406 -25.328125 63.703125 -23.140625 L 21.375 -23.140625 C 22.101562 -19.703125 23.566406 -17.03125 25.765625 -15.125 C 27.960938 -13.226562 30.703125 -12.28125 33.984375 -12.28125 C 36.617188 -12.28125 38.832031 -12.753906 40.625 -13.703125 C 42.414062 -14.648438 43.929688 -16.078125 45.171875 -17.984375 L 62.609375 -17.984375 C 60.484375 -12.203125 56.9375 -7.519531 51.96875 -3.9375 C 47 -0.363281 40.929688 1.421875 33.765625 1.421875 C 28.285156 1.421875 23.207031 0.179688 18.53125 -2.296875 C 13.851562 -4.785156 10.101562 -8.296875 7.28125 -12.828125 C 4.46875 -17.359375 3.0625 -22.582031 3.0625 -28.5 C 3.0625 -34.425781 4.46875 -39.65625 7.28125 -44.1875 C 10.101562 -48.71875 13.851562 -52.222656 18.53125 -54.703125 C 23.207031 -57.191406 28.285156 -58.4375 33.765625 -58.4375 Z M 33.765625 -44.625 C 30.703125 -44.625 28.09375 -43.765625 25.9375 -42.046875 C 23.78125 -40.328125 22.296875 -37.820312 21.484375 -34.53125 L 46.265625 -34.53125 C 45.679688 -37.53125 44.328125 -39.960938 42.203125 -41.828125 C 40.085938 -43.691406 37.273438 -44.625 33.765625 -44.625 Z M 33.765625 -44.625 "/></g></g></g><g fill="#ffffff" fill-opacity="1"><g transform="translate(484.068537, 415.326653)"><g><path d="M 45.9375 -57.671875 L 45.9375 -41.4375 L 38.59375 -41.4375 C 34.863281 -41.4375 31.703125 -40.175781 29.109375 -37.65625 C 26.515625 -35.132812 25.21875 -31.898438 25.21875 -27.953125 L 25.21875 0 L 6.90625 0 L 6.90625 -57.015625 L 23.90625 -57.015625 L 23.90625 -50.4375 C 28.289062 -55.257812 34.132812 -57.671875 41.4375 -57.671875 Z M 45.9375 -57.671875 "/></g></g></g><g fill="#ffffff" fill-opacity="1"><g transform="translate(526.823776, 415.326653)"><g><path d="M 42.546875 -40.890625 L 29.5 -40.890625 L 29.5 -24.890625 C 29.5 -22.179688 30.242188 -20.0625 31.734375 -18.53125 C 33.234375 -17 35.335938 -16.234375 38.046875 -16.234375 L 42.546875 -16.234375 L 42.546875 0 L 32.453125 0 C 25.648438 0 20.40625 -1.898438 16.71875 -5.703125 C 13.03125 -9.503906 11.1875 -14.765625 11.1875 -21.484375 L 11.1875 -40.890625 L 1.859375 -40.890625 L 1.859375 -57.015625 L 11.1875 -57.015625 L 11.1875 -72.140625 L 29.5 -72.140625 L 29.5 -57.015625 L 42.546875 -57.015625 Z M 42.546875 -40.890625 "/></g></g></g><g fill="#fcc509" fill-opacity="1"><g transform="translate(550.501728, 414.067874)"><g><path d="M 17.5625 0 L 3.0625 0 L 14.171875 -58.015625 L 28.671875 -58.015625 Z M 17.5625 0 "/></g></g></g><g fill="#fcc509" fill-opacity="1"><g transform="translate(576.1085, 414.067874)"><g><path d="M 33.484375 -58.015625 C 37.515625 -58.015625 41.101562 -57.28125 44.25 -55.8125 C 47.40625 -54.351562 49.878906 -52.28125 51.671875 -49.59375 C 53.460938 -46.914062 54.359375 -43.78125 54.359375 -40.1875 C 54.359375 -36.539062 53.429688 -33.113281 51.578125 -29.90625 C 49.734375 -26.707031 46.972656 -24.113281 43.296875 -22.125 C 39.628906 -20.132812 35.195312 -19.140625 30 -19.140625 L 20.890625 -19.140625 L 17.234375 0 L 2.65625 0 L 13.75 -58.015625 Z M 30.25 -31.5 C 33.289062 -31.5 35.597656 -32.242188 37.171875 -33.734375 C 38.742188 -35.222656 39.53125 -37.070312 39.53125 -39.28125 C 39.53125 -41.269531 38.8125 -42.832031 37.375 -43.96875 C 35.9375 -45.101562 34.054688 -45.671875 31.734375 -45.671875 L 26.015625 -45.671875 L 23.28125 -31.5 Z M 30.25 -31.5 "/></g></g></g><g fill="#fcc509" fill-opacity="1"><g transform="translate(626.659762, 414.067874)"><g><path d="M 26.359375 0 L 11.84375 0 L 20.46875 -44.921875 L 6.296875 -44.921875 L 8.78125 -58.015625 L 51.625 -58.015625 L 49.140625 -44.921875 L 34.96875 -44.921875 Z M 26.359375 0 "/></g></g></g><g fill="#fcc509" fill-opacity="1"><g transform="translate(669.669683, 414.067874)"><g><path d="M 22.375 -15.828125 L 37.546875 -43.09375 L 52.375 -43.09375 L 26.015625 0 L 13.671875 0 L 3.890625 -43.09375 L 17.5625 -43.09375 Z M 22.375 -15.828125 "/></g></g></g><g fill="#fcc509" fill-opacity="1"><g transform="translate(281.911307, 453.078954)"><g><path d="M 5.859375 -4.515625 L 0.296875 -14.53125 L 4.546875 -14.53125 L 7.78125 -8.640625 L 10.9375 -14.53125 L 15.203125 -14.53125 L 9.6875 -4.546875 L 9.6875 0 L 5.859375 0 Z M 5.859375 -4.515625 "/></g></g></g><g fill="#fcc509" fill-opacity="1"><g transform="translate(303.054643, 453.078954)"><g><path d="M 8.15625 0.15625 C 5.613281 0.15625 3.664062 -0.679688 2.3125 -2.359375 C 1.21875 -3.703125 0.671875 -5.289062 0.671875 -7.125 C 0.671875 -9.082031 1.21875 -10.773438 2.3125 -12.203125 C 3.664062 -13.941406 5.613281 -14.8125 8.15625 -14.8125 C 10.664062 -14.8125 12.617188 -13.941406 14.015625 -12.203125 C 15.085938 -10.804688 15.625 -9.113281 15.625 -7.125 C 15.625 -5.269531 15.085938 -3.679688 14.015625 -2.359375 C 12.617188 -0.679688 10.664062 0.15625 8.15625 0.15625 Z M 5.46875 -3.96875 C 6.125 -3.175781 7.015625 -2.78125 8.140625 -2.78125 C 9.273438 -2.78125 10.164062 -3.175781 10.8125 -3.96875 C 11.46875 -4.769531 11.796875 -5.820312 11.796875 -7.125 C 11.796875 -8.519531 11.472656 -9.660156 10.828125 -10.546875 C 10.179688 -11.429688 9.285156 -11.875 8.140625 -11.875 C 7.003906 -11.875 6.113281 -11.429688 5.46875 -10.546875 C 4.820312 -9.660156 4.5 -8.519531 4.5 -7.125 C 4.5 -5.820312 4.820312 -4.769531 5.46875 -3.96875 Z M 5.46875 -3.96875 "/></g></g></g><g fill="#fcc509" fill-opacity="1"><g transform="translate(324.993031, 453.078954)"><g><path d="M 8.03125 0.15625 C 5.507812 0.15625 3.648438 -0.613281 2.453125 -2.15625 C 1.515625 -3.363281 1.046875 -4.894531 1.046875 -6.75 L 1.046875 -14.53125 L 4.875 -14.53125 L 4.875 -6.6875 C 4.875 -4.082031 5.925781 -2.78125 8.03125 -2.78125 C 10.082031 -2.78125 11.109375 -4.082031 11.109375 -6.6875 L 11.109375 -14.53125 L 15.03125 -14.53125 L 15.03125 -6.75 C 15.03125 -4.882812 14.554688 -3.351562 13.609375 -2.15625 C 12.390625 -0.613281 10.53125 0.15625 8.03125 0.15625 Z M 8.03125 0.15625 "/></g></g></g><g fill="#fcc509" fill-opacity="1"><g transform="translate(346.70781, 453.078954)"><g><path d="M 13.765625 -9.390625 C 13.765625 -8.546875 13.546875 -7.707031 13.109375 -6.875 C 12.671875 -6.050781 12.023438 -5.382812 11.171875 -4.875 L 13.484375 0 L 9.265625 0 L 7.28125 -4.21875 L 5 -4.21875 L 5 0 L 1.171875 0 L 1.171875 -14.53125 L 7.921875 -14.53125 C 9.847656 -14.53125 11.300781 -14.035156 12.28125 -13.046875 C 13.269531 -12.066406 13.765625 -10.847656 13.765625 -9.390625 Z M 5 -7.125 L 7.75 -7.125 C 8.394531 -7.125 8.925781 -7.328125 9.34375 -7.734375 C 9.757812 -8.140625 9.96875 -8.679688 9.96875 -9.359375 C 9.96875 -10.046875 9.757812 -10.59375 9.34375 -11 C 8.925781 -11.40625 8.394531 -11.609375 7.75 -11.609375 L 5 -11.609375 Z M 5 -7.125 "/></g></g></g><g fill="#fcc509" fill-opacity="1"><g transform="translate(366.658569, 453.078954)"><g/></g></g><g fill="#fcc509" fill-opacity="1"><g transform="translate(376.994195, 453.078954)"><g><path d="M 1.171875 -14.53125 L 12.09375 -14.53125 L 12.09375 -11.609375 L 5 -11.609375 L 5 -8 L 11.109375 -8 L 11.109375 -5.015625 L 5 -5.015625 L 5 0 L 1.171875 0 Z M 1.171875 -14.53125 "/></g></g></g><g fill="#fcc509" fill-opacity="1"><g transform="translate(395.280327, 453.078954)"><g><path d="M 15.484375 0 L 11.421875 0 L 10.40625 -2.953125 L 5.234375 -2.953125 L 4.21875 0 L 0.171875 0 L 4.9375 -14.53125 L 10.703125 -14.53125 Z M 9.765625 -5.96875 L 7.828125 -11.921875 L 5.890625 -5.96875 Z M 9.765625 -5.96875 "/></g></g></g><g fill="#fcc509" fill-opacity="1"><g transform="translate(416.572754, 453.078954)"><g><path d="M 5.09375 0 L 0.171875 -14.53125 L 4.34375 -14.53125 L 7.96875 -3.125 L 11.609375 -14.53125 L 15.78125 -14.53125 L 10.859375 0 Z M 5.09375 0 "/></g></g></g><g fill="#fcc509" fill-opacity="1"><g transform="translate(438.163308, 453.078954)"><g><path d="M 8.15625 0.15625 C 5.613281 0.15625 3.664062 -0.679688 2.3125 -2.359375 C 1.21875 -3.703125 0.671875 -5.289062 0.671875 -7.125 C 0.671875 -9.082031 1.21875 -10.773438 2.3125 -12.203125 C 3.664062 -13.941406 5.613281 -14.8125 8.15625 -14.8125 C 10.664062 -14.8125 12.617188 -13.941406 14.015625 -12.203125 C 15.085938 -10.804688 15.625 -9.113281 15.625 -7.125 C 15.625 -5.269531 15.085938 -3.679688 14.015625 -2.359375 C 12.617188 -0.679688 10.664062 0.15625 8.15625 0.15625 Z M 5.46875 -3.96875 C 6.125 -3.175781 7.015625 -2.78125 8.140625 -2.78125 C 9.273438 -2.78125 10.164062 -3.175781 10.8125 -3.96875 C 11.46875 -4.769531 11.796875 -5.820312 11.796875 -7.125 C 11.796875 -8.519531 11.472656 -9.660156 10.828125 -10.546875 C 10.179688 -11.429688 9.285156 -11.875 8.140625 -11.875 C 7.003906 -11.875 6.113281 -11.429688 5.46875 -10.546875 C 4.820312 -9.660156 4.5 -8.519531 4.5 -7.125 C 4.5 -5.820312 4.820312 -4.769531 5.46875 -3.96875 Z M 5.46875 -3.96875 "/></g></g></g><g fill="#fcc509" fill-opacity="1"><g transform="translate(460.101694, 453.078954)"><g><path d="M 13.765625 -9.390625 C 13.765625 -8.546875 13.546875 -7.707031 13.109375 -6.875 C 12.671875 -6.050781 12.023438 -5.382812 11.171875 -4.875 L 13.484375 0 L 9.265625 0 L 7.28125 -4.21875 L 5 -4.21875 L 5 0 L 1.171875 0 L 1.171875 -14.53125 L 7.921875 -14.53125 C 9.847656 -14.53125 11.300781 -14.035156 12.28125 -13.046875 C 13.269531 -12.066406 13.765625 -10.847656 13.765625 -9.390625 Z M 5 -7.125 L 7.75 -7.125 C 8.394531 -7.125 8.925781 -7.328125 9.34375 -7.734375 C 9.757812 -8.140625 9.96875 -8.679688 9.96875 -9.359375 C 9.96875 -10.046875 9.757812 -10.59375 9.34375 -11 C 8.925781 -11.40625 8.394531 -11.609375 7.75 -11.609375 L 5 -11.609375 Z M 5 -7.125 "/></g></g></g><g fill="#fcc509" fill-opacity="1"><g transform="translate(480.052453, 453.078954)"><g><path d="M 1.1875 -14.53125 L 5.015625 -14.53125 L 5.015625 0 L 1.1875 0 Z M 1.1875 -14.53125 "/></g></g></g><g fill="#fcc509" fill-opacity="1"><g transform="translate(491.903622, 453.078954)"><g><path d="M 8.328125 0 L 4.5 0 L 4.5 -11.609375 L 0.296875 -11.609375 L 0.296875 -14.53125 L 12.515625 -14.53125 L 12.515625 -11.609375 L 8.328125 -11.609375 Z M 8.328125 0 "/></g></g></g><g fill="#fcc509" fill-opacity="1"><g transform="translate(510.363669, 453.078954)"><g><path d="M 1.171875 -14.53125 L 12.125 -14.53125 L 12.125 -11.609375 L 5 -11.609375 L 5 -8.6875 L 10.40625 -8.6875 L 10.40625 -5.71875 L 5 -5.71875 L 5 -2.9375 L 12.125 -2.9375 L 12.125 0 L 1.171875 0 Z M 1.171875 -14.53125 "/></g></g></g><g fill="#fcc509" fill-opacity="1"><g transform="translate(528.923106, 453.078954)"><g/></g></g><g fill="#fcc509" fill-opacity="1"><g transform="translate(539.258732, 453.078954)"><g><path d="M 8.328125 0 L 4.5 0 L 4.5 -11.609375 L 0.296875 -11.609375 L 0.296875 -14.53125 L 12.515625 -14.53125 L 12.515625 -11.609375 L 8.328125 -11.609375 Z M 8.328125 0 "/></g></g></g><g fill="#fcc509" fill-opacity="1"><g transform="translate(557.718795, 453.078954)"><g><path d="M 5.09375 0 L 0.171875 -14.53125 L 4.34375 -14.53125 L 7.96875 -3.125 L 11.609375 -14.53125 L 15.78125 -14.53125 L 10.859375 0 Z M 5.09375 0 "/></g></g></g></svg>