<svg xmlns="http://www.w3.org/2000/svg" xmlns:xlink="http://www.w3.org/1999/xlink" width="1024" zoomAndPan="magnify" viewBox="0 0 768 767.999994" height="1024" preserveAspectRatio="xMidYMid meet" version="1.0"><defs><g/><clipPath id="id1"><path d="M 312.121094 236.101562 L 456.121094 236.101562 L 456.121094 404.851562 L 312.121094 404.851562 Z M 312.121094 236.101562 " clip-rule="nonzero"/></clipPath></defs><rect x="-76.8" width="921.6" fill="#fcc509" y="-76.799999" height="921.599993" fill-opacity="1"/><rect x="-76.8" width="921.6" fill="#ffffff" y="-76.799999" height="921.599993" fill-opacity="1"/><rect x="-76.8" width="921.6" fill="#fcc509" y="-76.799999" height="921.599993" fill-opacity="1"/><g clip-path="url(#id1)"><path fill="#000000" d="M 419.242188 292.441406 L 409.671875 292.441406 L 415.359375 285.855469 C 416.667969 286.167969 418.019531 286.332031 419.429688 286.332031 C 428.941406 286.332031 436.707031 278.605469 436.769531 269.089844 C 436.832031 259.511719 429.085938 251.683594 419.429688 251.640625 C 409.921875 251.640625 402.132812 259.367188 402.09375 268.882812 C 402.074219 271.335938 402.570312 273.765625 403.546875 275.988281 L 389.550781 292.441406 L 383.425781 292.441406 L 365.945312 270.816406 C 368.144531 267.261719 369.347656 263.148438 369.390625 258.933594 C 369.433594 252.867188 367.105469 247.152344 362.851562 242.851562 C 358.59375 238.53125 352.925781 236.140625 346.714844 236.101562 C 334.300781 236.101562 324.125 246.21875 324.042969 258.660156 C 324 264.726562 326.328125 270.441406 330.582031 274.761719 C 334.839844 279.082031 340.527344 281.472656 346.714844 281.511719 C 348.335938 281.511719 349.957031 281.347656 351.511719 281.015625 L 360.710938 292.484375 L 348.980469 292.484375 C 332.390625 292.441406 312.164062 297.449219 312.164062 331.746094 L 312.164062 367.996094 C 312.164062 388.273438 328.734375 404.851562 349 404.851562 L 419.242188 404.851562 C 439.488281 404.851562 456.078125 388.273438 456.078125 367.996094 L 456.078125 331.746094 C 456.078125 301.269531 435.835938 292.441406 419.242188 292.441406 Z M 422.941406 383.558594 L 345.304688 383.558594 C 339.59375 383.558594 334.777344 378.738281 334.777344 373.023438 L 334.820312 331.746094 L 334.820312 325.453125 C 335.027344 319.90625 339.738281 315.292969 345.304688 315.292969 L 422.941406 315.292969 C 428.648438 315.292969 433.46875 320.113281 433.46875 325.824219 L 433.425781 367.125 L 433.46875 367.125 L 433.46875 373.023438 C 433.46875 378.738281 428.648438 383.558594 422.941406 383.558594 Z M 422.941406 383.558594 " fill-opacity="1" fill-rule="nonzero"/></g><path fill="#ffffff" d="M 368.457031 361.640625 C 368.414062 354.949219 368.371094 343.980469 368.332031 337.292969 C 368.289062 330.601562 373.292969 327.839844 379.023438 331.144531 C 384.734375 334.46875 394.285156 339.890625 399.996094 343.214844 C 405.707031 346.539062 405.832031 352 400.140625 355.386719 C 394.453125 358.773438 384.839844 364.300781 379.148438 367.664062 C 373.480469 371.050781 368.476562 368.328125 368.457031 361.640625 Z M 368.457031 361.640625 " fill-opacity="1" fill-rule="nonzero"/><g fill="#ffffff" fill-opacity="1"><g transform="translate(166.746748, 508.614696)"><g><path d="M 50 -39.796875 L 73.34375 0 L 51.859375 0 L 37.171875 -26.640625 L 22.59375 0 L 1.3125 0 L 24.671875 -39.6875 L 3.625 -76.75 L 24.78125 -76.75 L 37.390625 -52.625 L 50 -76.75 L 71.046875 -76.75 Z M 50 -39.796875 "/></g></g></g><g fill="#ffffff" fill-opacity="1"><g transform="translate(237.019445, 508.614696)"><g><path d="M 41.765625 -58.4375 C 46.453125 -58.4375 50.953125 -57.191406 55.265625 -54.703125 C 59.578125 -52.222656 63.082031 -48.71875 65.78125 -44.1875 C 68.488281 -39.65625 69.84375 -34.425781 69.84375 -28.5 C 69.84375 -22.582031 68.488281 -17.335938 65.78125 -12.765625 C 63.082031 -8.203125 59.578125 -4.695312 55.265625 -2.25 C 50.953125 0.195312 46.453125 1.421875 41.765625 1.421875 C 34.828125 1.421875 29.3125 -0.515625 25.21875 -4.390625 L 25.21875 21.921875 L 6.90625 21.921875 L 6.90625 -57.015625 L 23.90625 -57.015625 L 23.90625 -51.421875 C 28.21875 -56.097656 34.171875 -58.4375 41.765625 -58.4375 Z M 38.046875 -14.796875 C 41.992188 -14.796875 45.265625 -16.09375 47.859375 -18.6875 C 50.453125 -21.289062 51.75 -24.5625 51.75 -28.5 C 51.75 -32.445312 50.453125 -35.71875 47.859375 -38.3125 C 45.265625 -40.914062 41.992188 -42.21875 38.046875 -42.21875 C 34.097656 -42.21875 30.828125 -40.914062 28.234375 -38.3125 C 25.640625 -35.71875 24.34375 -32.445312 24.34375 -28.5 C 24.34375 -24.5625 25.640625 -21.289062 28.234375 -18.6875 C 30.828125 -16.09375 34.097656 -14.796875 38.046875 -14.796875 Z M 38.046875 -14.796875 "/></g></g></g><g fill="#ffffff" fill-opacity="1"><g transform="translate(305.866931, 508.614696)"><g><path d="M 33.765625 -58.4375 C 39.171875 -58.4375 44.195312 -57.191406 48.84375 -54.703125 C 53.488281 -52.222656 57.21875 -48.734375 60.03125 -44.234375 C 62.84375 -39.742188 64.25 -34.644531 64.25 -28.9375 C 64.25 -27.257812 64.066406 -25.328125 63.703125 -23.140625 L 21.375 -23.140625 C 22.101562 -19.703125 23.566406 -17.03125 25.765625 -15.125 C 27.960938 -13.226562 30.703125 -12.28125 33.984375 -12.28125 C 36.617188 -12.28125 38.832031 -12.753906 40.625 -13.703125 C 42.414062 -14.648438 43.929688 -16.078125 45.171875 -17.984375 L 62.609375 -17.984375 C 60.484375 -12.203125 56.9375 -7.519531 51.96875 -3.9375 C 47 -0.363281 40.929688 1.421875 33.765625 1.421875 C 28.285156 1.421875 23.207031 0.179688 18.53125 -2.296875 C 13.851562 -4.785156 10.101562 -8.296875 7.28125 -12.828125 C 4.46875 -17.359375 3.0625 -22.582031 3.0625 -28.5 C 3.0625 -34.425781 4.46875 -39.65625 7.28125 -44.1875 C 10.101562 -48.71875 13.851562 -52.222656 18.53125 -54.703125 C 23.207031 -57.191406 28.285156 -58.4375 33.765625 -58.4375 Z M 33.765625 -44.625 C 30.703125 -44.625 28.09375 -43.765625 25.9375 -42.046875 C 23.78125 -40.328125 22.296875 -37.820312 21.484375 -34.53125 L 46.265625 -34.53125 C 45.679688 -37.53125 44.328125 -39.960938 42.203125 -41.828125 C 40.085938 -43.691406 37.273438 -44.625 33.765625 -44.625 Z M 33.765625 -44.625 "/></g></g></g><g fill="#ffffff" fill-opacity="1"><g transform="translate(368.903979, 508.614696)"><g><path d="M 45.9375 -57.671875 L 45.9375 -41.4375 L 38.59375 -41.4375 C 34.863281 -41.4375 31.703125 -40.175781 29.109375 -37.65625 C 26.515625 -35.132812 25.21875 -31.898438 25.21875 -27.953125 L 25.21875 0 L 6.90625 0 L 6.90625 -57.015625 L 23.90625 -57.015625 L 23.90625 -50.4375 C 28.289062 -55.257812 34.132812 -57.671875 41.4375 -57.671875 Z M 45.9375 -57.671875 "/></g></g></g><g fill="#ffffff" fill-opacity="1"><g transform="translate(411.659218, 508.614696)"><g><path d="M 42.546875 -40.890625 L 29.5 -40.890625 L 29.5 -24.890625 C 29.5 -22.179688 30.242188 -20.0625 31.734375 -18.53125 C 33.234375 -17 35.335938 -16.234375 38.046875 -16.234375 L 42.546875 -16.234375 L 42.546875 0 L 32.453125 0 C 25.648438 0 20.40625 -1.898438 16.71875 -5.703125 C 13.03125 -9.503906 11.1875 -14.765625 11.1875 -21.484375 L 11.1875 -40.890625 L 1.859375 -40.890625 L 1.859375 -57.015625 L 11.1875 -57.015625 L 11.1875 -72.140625 L 29.5 -72.140625 L 29.5 -57.015625 L 42.546875 -57.015625 Z M 42.546875 -40.890625 "/></g></g></g><g fill="#000000" fill-opacity="1"><g transform="translate(437.602229, 508.797315)"><g><path d="M 16.828125 0 L 2.9375 0 L 13.578125 -55.5625 L 27.46875 -55.5625 Z M 16.828125 0 "/></g></g></g><g fill="#000000" fill-opacity="1"><g transform="translate(462.124119, 508.797315)"><g><path d="M 32.0625 -55.5625 C 35.925781 -55.5625 39.363281 -54.859375 42.375 -53.453125 C 45.394531 -52.054688 47.765625 -50.070312 49.484375 -47.5 C 51.203125 -44.9375 52.0625 -41.9375 52.0625 -38.5 C 52.0625 -35.007812 51.175781 -31.726562 49.40625 -28.65625 C 47.632812 -25.582031 44.988281 -23.09375 41.46875 -21.1875 C 37.945312 -19.28125 33.703125 -18.328125 28.734375 -18.328125 L 20 -18.328125 L 16.515625 0 L 2.546875 0 L 13.171875 -55.5625 Z M 28.96875 -30.15625 C 31.882812 -30.15625 34.09375 -30.867188 35.59375 -32.296875 C 37.101562 -33.734375 37.859375 -35.507812 37.859375 -37.625 C 37.859375 -39.53125 37.171875 -41.023438 35.796875 -42.109375 C 34.421875 -43.191406 32.625 -43.734375 30.40625 -43.734375 L 24.921875 -43.734375 L 22.296875 -30.15625 Z M 28.96875 -30.15625 "/></g></g></g><g fill="#000000" fill-opacity="1"><g transform="translate(510.533661, 508.797315)"><g><path d="M 25.234375 0 L 11.34375 0 L 19.609375 -43.015625 L 6.03125 -43.015625 L 8.40625 -55.5625 L 49.453125 -55.5625 L 47.0625 -43.015625 L 33.5 -43.015625 Z M 25.234375 0 "/></g></g></g><g fill="#000000" fill-opacity="1"><g transform="translate(551.721348, 508.797315)"><g><path d="M 21.4375 -15.15625 L 35.953125 -41.28125 L 50.171875 -41.28125 L 24.921875 0 L 13.09375 0 L 3.734375 -41.28125 L 16.828125 -41.28125 Z M 21.4375 -15.15625 "/></g></g></g><g fill="#000000" fill-opacity="1"><g transform="translate(186.232143, 537.25809)"><g><path d="M 5.859375 -4.515625 L 0.296875 -14.53125 L 4.546875 -14.53125 L 7.78125 -8.640625 L 10.9375 -14.53125 L 15.203125 -14.53125 L 9.6875 -4.546875 L 9.6875 0 L 5.859375 0 Z M 5.859375 -4.515625 "/></g></g></g><g fill="#000000" fill-opacity="1"><g transform="translate(207.357114, 537.25809)"><g><path d="M 8.15625 0.15625 C 5.613281 0.15625 3.664062 -0.679688 2.3125 -2.359375 C 1.21875 -3.703125 0.671875 -5.289062 0.671875 -7.125 C 0.671875 -9.082031 1.21875 -10.773438 2.3125 -12.203125 C 3.664062 -13.941406 5.613281 -14.8125 8.15625 -14.8125 C 10.664062 -14.8125 12.617188 -13.941406 14.015625 -12.203125 C 15.085938 -10.804688 15.625 -9.113281 15.625 -7.125 C 15.625 -5.269531 15.085938 -3.679688 14.015625 -2.359375 C 12.617188 -0.679688 10.664062 0.15625 8.15625 0.15625 Z M 5.46875 -3.96875 C 6.125 -3.175781 7.015625 -2.78125 8.140625 -2.78125 C 9.273438 -2.78125 10.164062 -3.175781 10.8125 -3.96875 C 11.46875 -4.769531 11.796875 -5.820312 11.796875 -7.125 C 11.796875 -8.519531 11.472656 -9.660156 10.828125 -10.546875 C 10.179688 -11.429688 9.285156 -11.875 8.140625 -11.875 C 7.003906 -11.875 6.113281 -11.429688 5.46875 -10.546875 C 4.820312 -9.660156 4.5 -8.519531 4.5 -7.125 C 4.5 -5.820312 4.820312 -4.769531 5.46875 -3.96875 Z M 5.46875 -3.96875 "/></g></g></g><g fill="#000000" fill-opacity="1"><g transform="translate(229.276195, 537.25809)"><g><path d="M 8.03125 0.15625 C 5.507812 0.15625 3.648438 -0.613281 2.453125 -2.15625 C 1.515625 -3.363281 1.046875 -4.894531 1.046875 -6.75 L 1.046875 -14.53125 L 4.875 -14.53125 L 4.875 -6.6875 C 4.875 -4.082031 5.925781 -2.78125 8.03125 -2.78125 C 10.082031 -2.78125 11.109375 -4.082031 11.109375 -6.6875 L 11.109375 -14.53125 L 15.03125 -14.53125 L 15.03125 -6.75 C 15.03125 -4.882812 14.554688 -3.351562 13.609375 -2.15625 C 12.390625 -0.613281 10.53125 0.15625 8.03125 0.15625 Z M 8.03125 0.15625 "/></g></g></g><g fill="#000000" fill-opacity="1"><g transform="translate(250.971942, 537.25809)"><g><path d="M 13.765625 -9.390625 C 13.765625 -8.546875 13.546875 -7.707031 13.109375 -6.875 C 12.671875 -6.050781 12.023438 -5.382812 11.171875 -4.875 L 13.484375 0 L 9.265625 0 L 7.28125 -4.21875 L 5 -4.21875 L 5 0 L 1.171875 0 L 1.171875 -14.53125 L 7.921875 -14.53125 C 9.847656 -14.53125 11.300781 -14.035156 12.28125 -13.046875 C 13.269531 -12.066406 13.765625 -10.847656 13.765625 -9.390625 Z M 5 -7.125 L 7.75 -7.125 C 8.394531 -7.125 8.925781 -7.328125 9.34375 -7.734375 C 9.757812 -8.140625 9.96875 -8.679688 9.96875 -9.359375 C 9.96875 -10.046875 9.757812 -10.59375 9.34375 -11 C 8.925781 -11.40625 8.394531 -11.609375 7.75 -11.609375 L 5 -11.609375 Z M 5 -7.125 "/></g></g></g><g fill="#000000" fill-opacity="1"><g transform="translate(270.905746, 537.25809)"><g/></g></g><g fill="#000000" fill-opacity="1"><g transform="translate(281.2358, 537.25809)"><g><path d="M 1.171875 -14.53125 L 12.09375 -14.53125 L 12.09375 -11.609375 L 5 -11.609375 L 5 -8 L 11.109375 -8 L 11.109375 -5.015625 L 5 -5.015625 L 5 0 L 1.171875 0 Z M 1.171875 -14.53125 "/></g></g></g><g fill="#000000" fill-opacity="1"><g transform="translate(299.506948, 537.25809)"><g><path d="M 15.484375 0 L 11.421875 0 L 10.40625 -2.953125 L 5.234375 -2.953125 L 4.21875 0 L 0.171875 0 L 4.9375 -14.53125 L 10.703125 -14.53125 Z M 9.765625 -5.96875 L 7.828125 -11.921875 L 5.890625 -5.96875 Z M 9.765625 -5.96875 "/></g></g></g><g fill="#000000" fill-opacity="1"><g transform="translate(320.780815, 537.25809)"><g><path d="M 5.09375 0 L 0.171875 -14.53125 L 4.34375 -14.53125 L 7.96875 -3.125 L 11.609375 -14.53125 L 15.78125 -14.53125 L 10.859375 0 Z M 5.09375 0 "/></g></g></g><g fill="#000000" fill-opacity="1"><g transform="translate(342.352478, 537.25809)"><g><path d="M 8.15625 0.15625 C 5.613281 0.15625 3.664062 -0.679688 2.3125 -2.359375 C 1.21875 -3.703125 0.671875 -5.289062 0.671875 -7.125 C 0.671875 -9.082031 1.21875 -10.773438 2.3125 -12.203125 C 3.664062 -13.941406 5.613281 -14.8125 8.15625 -14.8125 C 10.664062 -14.8125 12.617188 -13.941406 14.015625 -12.203125 C 15.085938 -10.804688 15.625 -9.113281 15.625 -7.125 C 15.625 -5.269531 15.085938 -3.679688 14.015625 -2.359375 C 12.617188 -0.679688 10.664062 0.15625 8.15625 0.15625 Z M 5.46875 -3.96875 C 6.125 -3.175781 7.015625 -2.78125 8.140625 -2.78125 C 9.273438 -2.78125 10.164062 -3.175781 10.8125 -3.96875 C 11.46875 -4.769531 11.796875 -5.820312 11.796875 -7.125 C 11.796875 -8.519531 11.472656 -9.660156 10.828125 -10.546875 C 10.179688 -11.429688 9.285156 -11.875 8.140625 -11.875 C 7.003906 -11.875 6.113281 -11.429688 5.46875 -10.546875 C 4.820312 -9.660156 4.5 -8.519531 4.5 -7.125 C 4.5 -5.820312 4.820312 -4.769531 5.46875 -3.96875 Z M 5.46875 -3.96875 "/></g></g></g><g fill="#000000" fill-opacity="1"><g transform="translate(364.271555, 537.25809)"><g><path d="M 13.765625 -9.390625 C 13.765625 -8.546875 13.546875 -7.707031 13.109375 -6.875 C 12.671875 -6.050781 12.023438 -5.382812 11.171875 -4.875 L 13.484375 0 L 9.265625 0 L 7.28125 -4.21875 L 5 -4.21875 L 5 0 L 1.171875 0 L 1.171875 -14.53125 L 7.921875 -14.53125 C 9.847656 -14.53125 11.300781 -14.035156 12.28125 -13.046875 C 13.269531 -12.066406 13.765625 -10.847656 13.765625 -9.390625 Z M 5 -7.125 L 7.75 -7.125 C 8.394531 -7.125 8.925781 -7.328125 9.34375 -7.734375 C 9.757812 -8.140625 9.96875 -8.679688 9.96875 -9.359375 C 9.96875 -10.046875 9.757812 -10.59375 9.34375 -11 C 8.925781 -11.40625 8.394531 -11.609375 7.75 -11.609375 L 5 -11.609375 Z M 5 -7.125 "/></g></g></g><g fill="#000000" fill-opacity="1"><g transform="translate(384.205371, 537.25809)"><g><path d="M 1.1875 -14.53125 L 5.015625 -14.53125 L 5.015625 0 L 1.1875 0 Z M 1.1875 -14.53125 "/></g></g></g><g fill="#000000" fill-opacity="1"><g transform="translate(396.049183, 537.25809)"><g><path d="M 8.328125 0 L 4.5 0 L 4.5 -11.609375 L 0.296875 -11.609375 L 0.296875 -14.53125 L 12.515625 -14.53125 L 12.515625 -11.609375 L 8.328125 -11.609375 Z M 8.328125 0 "/></g></g></g><g fill="#000000" fill-opacity="1"><g transform="translate(414.494026, 537.25809)"><g><path d="M 1.171875 -14.53125 L 12.125 -14.53125 L 12.125 -11.609375 L 5 -11.609375 L 5 -8.6875 L 10.40625 -8.6875 L 10.40625 -5.71875 L 5 -5.71875 L 5 -2.9375 L 12.125 -2.9375 L 12.125 0 L 1.171875 0 Z M 1.171875 -14.53125 "/></g></g></g><g fill="#000000" fill-opacity="1"><g transform="translate(433.038151, 537.25809)"><g/></g></g><g fill="#000000" fill-opacity="1"><g transform="translate(443.368205, 537.25809)"><g><path d="M 8.328125 0 L 4.5 0 L 4.5 -11.609375 L 0.296875 -11.609375 L 0.296875 -14.53125 L 12.515625 -14.53125 L 12.515625 -11.609375 L 8.328125 -11.609375 Z M 8.328125 0 "/></g></g></g><g fill="#000000" fill-opacity="1"><g transform="translate(461.813048, 537.25809)"><g><path d="M 5.09375 0 L 0.171875 -14.53125 L 4.34375 -14.53125 L 7.96875 -3.125 L 11.609375 -14.53125 L 15.78125 -14.53125 L 10.859375 0 Z M 5.09375 0 "/></g></g></g></svg>